<?xml version="1.0" encoding="UTF-8"?>
<svg width="14.613cm" height="11.504cm" version="1.1" viewBox="0 0 57530 45290" xmlns="http://www.w3.org/2000/svg" xmlns:cc="http://creativecommons.org/ns#" xmlns:dc="http://purl.org/dc/elements/1.1/" xmlns:rdf="http://www.w3.org/1999/02/22-rdf-syntax-ns#">
 <metadata>
  <rdf:RDF>
   <cc:Work rdf:about="">
    <dc:format>image/svg+xml</dc:format>
    <dc:type rdf:resource="http://purl.org/dc/dcmitype/StillImage"/>
    <dc:title>SVG Picture created as u10e_topplate-Eco1_User.svg date 2020/12/03 12:42:32</dc:title>
   </cc:Work>
  </rdf:RDF>
 </metadata>
 <title>SVG Picture created as u10e_topplate-Eco1_User.svg date 2020/12/03 12:42:32</title>
 <desc>Picture generated by PCBNEW</desc>
 <g fill-opacity="0" stroke="#000" stroke-linecap="round" stroke-linejoin="round" stroke-width="59.055">
  <circle cx="8513.8" cy="5521.6" r="393.7"/>
  <circle cx="1820.9" cy="36034" r="440.17"/>
  <circle cx="22490" cy="35640" r="440.17"/>
  <circle cx="30955" cy="14970" r="440.17"/>
  <circle cx="56545" cy="32490" r="393.7"/>
  <circle cx="56348" cy="3553.2" r="393.7"/>
  <circle cx="56348" cy="17333" r="393.7"/>
  <path d="m49261 31309v-5512"/>
  <path d="m54773 31309h-5512"/>
  <path d="m54773 25797v5512"/>
  <path d="m49261 25797h5512"/>
  <path d="m2386 37977 4774-2756"/>
  <path d="m5142 42750-2756-4773"/>
  <path d="m9916 39994-4774 2756"/>
  <path d="m7160 35221 2756 4773"/>
  <path d="m49261 23828v-5512"/>
  <path d="m54773 23828h-5512"/>
  <path d="m54773 18316v5512"/>
  <path d="m49261 18316h5512"/>
  <path d="m49261 16348v-5512"/>
  <path d="m54773 16348h-5512"/>
  <path d="m54773 10836v5512"/>
  <path d="m49261 10836h5512"/>
  <path d="m49261 8868v-5512"/>
  <path d="m54773 8868h-5512"/>
  <path d="m54773 3356v5512"/>
  <path d="m49261 3356h5512"/>
  <path d="m14376 34782 5428-957"/>
  <path d="m19804 33825 957 5428"/>
  <path d="m20761 39253-5428 957"/>
  <path d="m15333 40210-957-5428"/>
  <path d="m10088 17923h5512"/>
  <path d="m15600 17923v5512"/>
  <path d="m15600 23435h-5512"/>
  <path d="m10088 23435v-5512"/>
  <path d="m26750 33825 5428 957"/>
  <path d="m32178 34782-957 5428"/>
  <path d="m31221 40210-5428-957"/>
  <path d="m25793 39253 957-5428"/>
  <path d="m40009 25797h5512"/>
  <path d="m45521 25797v5512"/>
  <path d="m45521 31309h-5512"/>
  <path d="m40009 31309v-5512"/>
  <path d="m32529 24419h5512"/>
  <path d="m38041 24419v5512"/>
  <path d="m38041 29931h-5512"/>
  <path d="m32529 29931v-5512"/>
  <path d="m25049 23435h5512"/>
  <path d="m30561 23435v5511"/>
  <path d="m30561 28946h-5512"/>
  <path d="m25049 28946v-5511"/>
  <path d="m17568 24419h5512"/>
  <path d="m23080 24419v5512"/>
  <path d="m23080 29931h-5512"/>
  <path d="m17568 29931v-5512"/>
  <path d="m10088 25403h5512"/>
  <path d="m15600 25403v5512"/>
  <path d="m15600 30915h-5512"/>
  <path d="m10088 30915v-5512"/>
  <path d="m40009 18316h5512"/>
  <path d="m45521 18316v5512"/>
  <path d="m45521 23828h-5512"/>
  <path d="m40009 23828v-5512"/>
  <path d="m32529 16938h5512"/>
  <path d="m38041 16938v5512"/>
  <path d="m38041 22450h-5512"/>
  <path d="m32529 22450v-5512"/>
  <path d="m25049 15954h5512"/>
  <path d="m30561 15954v5512"/>
  <path d="m30561 21466h-5512"/>
  <path d="m25049 21466v-5512"/>
  <path d="m17568 16938h5512"/>
  <path d="m23080 16938v5512"/>
  <path d="m23080 22450h-5512"/>
  <path d="m17568 22450v-5512"/>
  <path d="m40009 10836h5512"/>
  <path d="m45521 10836v5512"/>
  <path d="m45521 16348h-5512"/>
  <path d="m40009 16348v-5512"/>
  <path d="m32529 9458h5512"/>
  <path d="m38041 9458v5512"/>
  <path d="m38041 14970h-5512"/>
  <path d="m32529 14970v-5512"/>
  <path d="m25049 8474h5512"/>
  <path d="m30561 8474v5512"/>
  <path d="m30561 13986h-5512"/>
  <path d="m25049 13986v-5512"/>
  <path d="m17568 9458h5512"/>
  <path d="m23080 9458v5512"/>
  <path d="m23080 14970h-5512"/>
  <path d="m17568 14970v-5512"/>
  <path d="m10088 10442h5512"/>
  <path d="m15600 10442v5512"/>
  <path d="m15600 15954h-5512"/>
  <path d="m10088 15954v-5512"/>
  <path d="m40009 3356h5512"/>
  <path d="m45521 3356v5512"/>
  <path d="m45521 8868h-5512"/>
  <path d="m40009 8868v-5512"/>
  <path d="m32529 1978h5512"/>
  <path d="m38041 1978v5512"/>
  <path d="m38041 7490h-5512"/>
  <path d="m32529 7490v-5512"/>
  <path d="m25049 994h5512"/>
  <path d="m30561 994v5511"/>
  <path d="m30561 6505h-5512"/>
  <path d="m25049 6505v-5511"/>
  <path d="m17568 1978h5512"/>
  <path d="m23080 1978v5512"/>
  <path d="m23080 7490h-5512"/>
  <path d="m17568 7490v-5512"/>
  <path d="m10088 2962h5512"/>
  <path d="m15600 2962v5512"/>
  <path d="m15600 8474h-5512"/>
  <path d="m10088 8474v-5512"/>
 </g>
 <g fill-opacity="0" stroke="#000" stroke-linecap="round" stroke-linejoin="round" stroke-width="19.685">
  <path d="m7204 31368v-29390"/>
  <path d="m9 35472 7195-4104"/>
  <path d="m35679 33671h21850"/>
  <path d="m34301 41742 1378-8071"/>
  <path d="m31938 41348 2363 394"/>
  <path d="m9104 1978h-1900"/>
  <path d="m16584 1978h-7480"/>
  <path d="m16584 994v984"/>
  <path d="m24064 994h-7480"/>
  <path d="m24064 9v985"/>
  <path d="m31545 9h-7481"/>
  <path d="m31545 994v-985"/>
  <path d="m39025 994h-7480"/>
  <path d="m39025 2372v-1378"/>
  <path d="m57529 2372h-18504"/>
  <path d="m57529 33671v-31299"/>
  <path d="m31938 41348-8661-1575"/>
  <path d="m12057 41742 11220-1969"/>
  <path d="m5757 45285 6300-3543"/>
  <path d="m9 35472 5748 9813"/>
 </g>
</svg>
