<?xml version="1.0" encoding="UTF-8" standalone="no"?>
<svg
   version="1.1"
   width="15.102840cm"
   height="11.503660cm"
   viewBox="0 0 59460 45290"
   id="svg186"
   sodipodi:docname="u10e-Edge_Cuts-manual.svg"
   inkscape:version="1.1 (c4e8f9ed74, 2021-05-24)"
   xmlns:inkscape="http://www.inkscape.org/namespaces/inkscape"
   xmlns:sodipodi="http://sodipodi.sourceforge.net/DTD/sodipodi-0.dtd"
   xmlns:xlink="http://www.w3.org/1999/xlink"
   xmlns="http://www.w3.org/2000/svg"
   xmlns:svg="http://www.w3.org/2000/svg"
   xmlns:rdf="http://www.w3.org/1999/02/22-rdf-syntax-ns#"
   xmlns:cc="http://creativecommons.org/ns#"
   xmlns:dc="http://purl.org/dc/elements/1.1/">
  <sodipodi:namedview
     id="namedview125"
     pagecolor="#ffffff"
     bordercolor="#666666"
     borderopacity="1.0"
     inkscape:pageshadow="2"
     inkscape:pageopacity="0.0"
     inkscape:pagecheckerboard="0"
     inkscape:document-units="cm"
     showgrid="false"
     inkscape:zoom="1.6720946"
     inkscape:cx="285.56996"
     inkscape:cy="169.84685"
     inkscape:window-width="2560"
     inkscape:window-height="1387"
     inkscape:window-x="0"
     inkscape:window-y="0"
     inkscape:window-maximized="1"
     inkscape:current-layer="svg186" />
  <defs
     id="defs190">
    <pattern
       xlink:href="#pattern6046"
       id="pattern7031"
       patternTransform="translate(-0.00810666,-0.00808125)" />
    <pattern
       patternUnits="userSpaceOnUse"
       width="570.89941"
       height="434.8386"
       patternTransform="translate(-0.00810666,-0.00808125)"
       id="pattern6046">
      <path
         id="path511"
         style="color:#000000;fill:#000000;fill-opacity:1;stroke:none;stroke-width:0.188976;stroke-linecap:butt;stroke-linejoin:miter;stroke-opacity:1;-inkscape-stroke:none"
         d="m 22.803101,347.72465 c -0.02425,-0.006 -0.05001,-0.003 -0.07163,0.01 -0.045,0.0264 -0.06007,0.0843 -0.03366,0.12931 l 51.024001,86.928 c 0.02642,0.045 0.08431,0.0601 0.129319,0.0337 0.045,-0.0264 0.06007,-0.0843 0.03366,-0.12931 L 22.860795,347.76826 c -0.01269,-0.0216 -0.03344,-0.0373 -0.05769,-0.0436 z M 134.29919,400.6403 c -0.0241,-0.007 -0.05,-0.004 -0.0718,0.009 l -60.470403,34.01281 c -0.04548,0.0256 -0.06161,0.0832 -0.03602,0.12867 0.02559,0.0455 0.0832,0.0616 0.128681,0.036 l 60.470402,-34.0128 c 0.0455,-0.0256 0.0616,-0.0832 0.036,-0.12868 -0.0123,-0.0218 -0.0327,-0.0379 -0.0569,-0.0447 z m 107.67019,-18.90448 -107.712,18.9024 c -0.0514,0.009 -0.0858,0.058 -0.0767,0.1094 0.009,0.0514 0.058,0.0858 0.1094,0.0768 l 107.712,-18.9024 c 0.0514,-0.009 0.0858,-0.058 0.0768,-0.10941 -0.009,-0.0514 -0.058,-0.0858 -0.10941,-0.0767 z m 0.0333,1e-4 c -0.0513,-0.009 -0.10054,0.0247 -0.10988,0.076 -0.009,0.0513 0.0247,0.10054 0.076,0.10988 l 83.1552,15.12 c 0.0513,0.009 0.10054,-0.0247 0.10988,-0.0761 0.009,-0.0513 -0.0247,-0.10054 -0.0761,-0.10988 z M 570.80492,22.684801 c -0.0522,3e-6 -0.0945,0.0423 -0.0945,0.09448 V 323.24969 c 0,0.0522 0.0423,0.0945 0.0945,0.0945 0.0522,0 0.0945,-0.0423 0.0945,-0.0945 V 22.779282 c 0,-0.05218 -0.0423,-0.09448 -0.0945,-0.09448 z m -177.6384,0 c -0.0522,3e-6 -0.0945,0.0423 -0.0945,0.09448 0,0.05218 0.0423,0.09448 0.0945,0.09448 h 177.6384 c 0.0522,-3e-6 0.0945,-0.0423 0.0945,-0.09448 0,-0.05218 -0.0423,-0.09448 -0.0945,-0.09448 z m 0,-13.2288007 c -0.0522,2.7e-6 -0.0945,0.042302 -0.0945,0.094481 V 22.779282 c 0,0.05218 0.0423,0.09448 0.0945,0.09448 0.0522,-3e-6 0.0945,-0.0423 0.0945,-0.09448 V 9.5504815 c 0,-0.05218 -0.0423,-0.094478 -0.0945,-0.094481 z m -71.808,0 c -0.0522,2.7e-6 -0.0945,0.042302 -0.0945,0.094481 0,0.05218 0.0423,0.094478 0.0945,0.094481 h 71.808 c 0.0522,-2.8e-6 0.0945,-0.042302 0.0945,-0.094481 0,-0.05218 -0.0423,-0.094478 -0.0945,-0.094481 z M 321.35852,0 c -0.0522,2.6490241e-6 -0.0945,0.04230148 -0.0945,0.09448125 V 9.5504815 c 0,0.05218 0.0423,0.094478 0.0945,0.094481 0.0522,-2.8e-6 0.0945,-0.042302 0.0945,-0.094481 V 0.09448125 C 321.453,0.04230148 321.41069,2.6490241e-6 321.35852,0 Z m -71.80801,0 c -0.0522,2.6490241e-6 -0.0945,0.04230148 -0.0945,0.09448125 0,0.05217978 0.0423,0.09447861 0.0945,0.09448126 h 71.80801 c 0.0522,-2.65e-6 0.0945,-0.0423015 0.0945,-0.09448126 C 321.453,0.04230148 321.41069,2.6490241e-6 321.35852,0 Z m 0,0 c -0.0522,2.6490241e-6 -0.0945,0.04230148 -0.0945,0.09448125 V 9.5504815 c 0,0.05218 0.0423,0.094478 0.0945,0.094481 0.0522,-2.8e-6 0.0945,-0.042302 0.0945,-0.094481 V 0.09448125 C 249.645,0.04230148 249.60269,2.6490241e-6 249.55051,0 Z m -71.8176,9.4560003 c -0.0522,2.7e-6 -0.0945,0.042302 -0.0945,0.094481 0,0.05218 0.0423,0.094478 0.0945,0.094481 h 71.8176 c 0.0522,-2.8e-6 0.0945,-0.042302 0.0945,-0.094481 0,-0.05218 -0.0423,-0.094478 -0.0945,-0.094481 z m 0,0 c -0.0522,2.7e-6 -0.0945,0.042302 -0.0945,0.094481 v 9.4464007 c 0,0.05218 0.0423,0.09448 0.0945,0.09448 0.0522,-3e-6 0.0945,-0.0423 0.0945,-0.09448 V 9.5504815 c 0,-0.05218 -0.0423,-0.094478 -0.0945,-0.094481 z m -71.808,9.4464007 c -0.0522,2e-6 -0.0945,0.0423 -0.0945,0.09448 0,0.05218 0.0423,0.09448 0.0945,0.09448 h 71.808 c 0.0522,-3e-6 0.0945,-0.0423 0.0945,-0.09448 0,-0.05218 -0.0423,-0.09448 -0.0945,-0.09448 z m -83.145603,0 c -0.05218,3e-6 -0.09448,0.0423 -0.09448,0.09448 4e-6,0.05218 0.0423,0.09448 0.09448,0.09448 h 83.145603 c 0.0522,-3e-6 0.0945,-0.0423 0.0945,-0.09448 0,-0.05218 -0.0423,-0.09448 -0.0945,-0.09448 z M 0.11935042,308.03853 c -0.02417706,-0.007 -0.0499817,-0.003 -0.07173751,0.009 -0.04530682,0.0259 -0.06103877,0.0836 -0.0351375,0.12893 l 22.68480059,39.6864 c 0.0259,0.0453 0.08362,0.061 0.128925,0.0351 0.04531,-0.0259 0.06104,-0.0836 0.03514,-0.12892 L 0.17653792,308.08279 c -0.0124383,-0.0217 -0.0330093,-0.0377 -0.0571875,-0.0443 z M 0.09450666,18.902401 c -0.05217902,3e-6 -0.09447754094,0.0423 -0.09448125019,0.09448 V 308.12969 c 2.649024e-6,0.0522 0.04230148019,0.0945 0.09448125019,0.0945 0.05217978,0 0.09447861,-0.0423 0.09448126,-0.0945 V 18.996882 c -3.71e-6,-0.05218 -0.0423022,-0.09448 -0.09448126,-0.09448 z m 0,0 c -0.05217902,3e-6 -0.09447754094,0.0423 -0.09448125019,0.09448 3.709248e-6,0.05218 0.04230223019,0.09448 0.09448125019,0.09448 H 22.779307 c 0.05218,-4e-6 0.09448,-0.0423 0.09448,-0.09448 -4e-6,-0.05218 -0.0423,-0.09448 -0.09448,-0.09448 z M 325.15646,396.85569 c -0.0515,-0.009 -0.10017,0.0262 -0.10875,0.0777 -0.009,0.0515 0.0262,0.10017 0.0777,0.10875 l 22.67521,3.7824 c 0.0515,0.009 0.10016,-0.0262 0.10874,-0.0777 0.009,-0.0515 -0.0262,-0.10017 -0.0777,-0.10875 z m 35.90436,-73.69913 c -0.0514,-0.009 -0.10025,0.0258 -0.10903,0.0772 l -13.2288,77.48161 c -0.009,0.0514 0.0258,0.10024 0.0772,0.10902 0.0514,0.009 0.10024,-0.0258 0.10903,-0.0772 l 13.2288,-77.4816 c 0.009,-0.0514 -0.0258,-0.10024 -0.0772,-0.10903 z m -0.0159,-0.001 c -0.0522,0 -0.0945,0.0423 -0.0945,0.0945 0,0.0522 0.0423,0.0945 0.0945,0.0945 h 209.76 c 0.0522,0 0.0945,-0.0423 0.0945,-0.0945 0,-0.0522 -0.0423,-0.0945 -0.0945,-0.0945 z" />
    </pattern>
    <pattern
       xlink:href="#pattern6046-6"
       id="pattern7031-3"
       patternTransform="matrix(104.16666,0,0,104.16666,-19989.505,-19219.785)" />
    <pattern
       patternUnits="userSpaceOnUse"
       width="570.89941"
       height="434.8386"
       patternTransform="translate(-0.00810666,-0.00808125)"
       id="pattern6046-6">
      <path
         id="path511-7"
         style="color:#000000;fill:#000000;fill-opacity:1;stroke:none;stroke-width:0.188976;stroke-linecap:butt;stroke-linejoin:miter;stroke-opacity:1;-inkscape-stroke:none"
         d="m 22.803101,347.72465 c -0.02425,-0.006 -0.05001,-0.003 -0.07163,0.01 -0.045,0.0264 -0.06007,0.0843 -0.03366,0.12931 l 51.024001,86.928 c 0.02642,0.045 0.08431,0.0601 0.129319,0.0337 0.045,-0.0264 0.06007,-0.0843 0.03366,-0.12931 L 22.860795,347.76826 c -0.01269,-0.0216 -0.03344,-0.0373 -0.05769,-0.0436 z M 134.29919,400.6403 c -0.0241,-0.007 -0.05,-0.004 -0.0718,0.009 l -60.470403,34.01281 c -0.04548,0.0256 -0.06161,0.0832 -0.03602,0.12867 0.02559,0.0455 0.0832,0.0616 0.128681,0.036 l 60.470402,-34.0128 c 0.0455,-0.0256 0.0616,-0.0832 0.036,-0.12868 -0.0123,-0.0218 -0.0327,-0.0379 -0.0569,-0.0447 z m 107.67019,-18.90448 -107.712,18.9024 c -0.0514,0.009 -0.0858,0.058 -0.0767,0.1094 0.009,0.0514 0.058,0.0858 0.1094,0.0768 l 107.712,-18.9024 c 0.0514,-0.009 0.0858,-0.058 0.0768,-0.10941 -0.009,-0.0514 -0.058,-0.0858 -0.10941,-0.0767 z m 0.0333,1e-4 c -0.0513,-0.009 -0.10054,0.0247 -0.10988,0.076 -0.009,0.0513 0.0247,0.10054 0.076,0.10988 l 83.1552,15.12 c 0.0513,0.009 0.10054,-0.0247 0.10988,-0.0761 0.009,-0.0513 -0.0247,-0.10054 -0.0761,-0.10988 z M 570.80492,22.684801 c -0.0522,3e-6 -0.0945,0.0423 -0.0945,0.09448 V 323.24969 c 0,0.0522 0.0423,0.0945 0.0945,0.0945 0.0522,0 0.0945,-0.0423 0.0945,-0.0945 V 22.779282 c 0,-0.05218 -0.0423,-0.09448 -0.0945,-0.09448 z m -177.6384,0 c -0.0522,3e-6 -0.0945,0.0423 -0.0945,0.09448 0,0.05218 0.0423,0.09448 0.0945,0.09448 h 177.6384 c 0.0522,-3e-6 0.0945,-0.0423 0.0945,-0.09448 0,-0.05218 -0.0423,-0.09448 -0.0945,-0.09448 z m 0,-13.2288007 c -0.0522,2.7e-6 -0.0945,0.042302 -0.0945,0.094481 V 22.779282 c 0,0.05218 0.0423,0.09448 0.0945,0.09448 0.0522,-3e-6 0.0945,-0.0423 0.0945,-0.09448 V 9.5504815 c 0,-0.05218 -0.0423,-0.094478 -0.0945,-0.094481 z m -71.808,0 c -0.0522,2.7e-6 -0.0945,0.042302 -0.0945,0.094481 0,0.05218 0.0423,0.094478 0.0945,0.094481 h 71.808 c 0.0522,-2.8e-6 0.0945,-0.042302 0.0945,-0.094481 0,-0.05218 -0.0423,-0.094478 -0.0945,-0.094481 z M 321.35852,0 c -0.0522,2.6490241e-6 -0.0945,0.04230148 -0.0945,0.09448125 V 9.5504815 c 0,0.05218 0.0423,0.094478 0.0945,0.094481 0.0522,-2.8e-6 0.0945,-0.042302 0.0945,-0.094481 V 0.09448125 C 321.453,0.04230148 321.41069,2.6490241e-6 321.35852,0 Z m -71.80801,0 c -0.0522,2.6490241e-6 -0.0945,0.04230148 -0.0945,0.09448125 0,0.05217978 0.0423,0.09447861 0.0945,0.09448126 h 71.80801 c 0.0522,-2.65e-6 0.0945,-0.0423015 0.0945,-0.09448126 C 321.453,0.04230148 321.41069,2.6490241e-6 321.35852,0 Z m 0,0 c -0.0522,2.6490241e-6 -0.0945,0.04230148 -0.0945,0.09448125 V 9.5504815 c 0,0.05218 0.0423,0.094478 0.0945,0.094481 0.0522,-2.8e-6 0.0945,-0.042302 0.0945,-0.094481 V 0.09448125 C 249.645,0.04230148 249.60269,2.6490241e-6 249.55051,0 Z m -71.8176,9.4560003 c -0.0522,2.7e-6 -0.0945,0.042302 -0.0945,0.094481 0,0.05218 0.0423,0.094478 0.0945,0.094481 h 71.8176 c 0.0522,-2.8e-6 0.0945,-0.042302 0.0945,-0.094481 0,-0.05218 -0.0423,-0.094478 -0.0945,-0.094481 z m 0,0 c -0.0522,2.7e-6 -0.0945,0.042302 -0.0945,0.094481 v 9.4464007 c 0,0.05218 0.0423,0.09448 0.0945,0.09448 0.0522,-3e-6 0.0945,-0.0423 0.0945,-0.09448 V 9.5504815 c 0,-0.05218 -0.0423,-0.094478 -0.0945,-0.094481 z m -71.808,9.4464007 c -0.0522,2e-6 -0.0945,0.0423 -0.0945,0.09448 0,0.05218 0.0423,0.09448 0.0945,0.09448 h 71.808 c 0.0522,-3e-6 0.0945,-0.0423 0.0945,-0.09448 0,-0.05218 -0.0423,-0.09448 -0.0945,-0.09448 z m -83.145603,0 c -0.05218,3e-6 -0.09448,0.0423 -0.09448,0.09448 4e-6,0.05218 0.0423,0.09448 0.09448,0.09448 h 83.145603 c 0.0522,-3e-6 0.0945,-0.0423 0.0945,-0.09448 0,-0.05218 -0.0423,-0.09448 -0.0945,-0.09448 z M 0.11935042,308.03853 c -0.02417706,-0.007 -0.0499817,-0.003 -0.07173751,0.009 -0.04530682,0.0259 -0.06103877,0.0836 -0.0351375,0.12893 l 22.68480059,39.6864 c 0.0259,0.0453 0.08362,0.061 0.128925,0.0351 0.04531,-0.0259 0.06104,-0.0836 0.03514,-0.12892 L 0.17653792,308.08279 c -0.0124383,-0.0217 -0.0330093,-0.0377 -0.0571875,-0.0443 z M 0.09450666,18.902401 c -0.05217902,3e-6 -0.09447754094,0.0423 -0.09448125019,0.09448 V 308.12969 c 2.649024e-6,0.0522 0.04230148019,0.0945 0.09448125019,0.0945 0.05217978,0 0.09447861,-0.0423 0.09448126,-0.0945 V 18.996882 c -3.71e-6,-0.05218 -0.0423022,-0.09448 -0.09448126,-0.09448 z m 0,0 c -0.05217902,3e-6 -0.09447754094,0.0423 -0.09448125019,0.09448 3.709248e-6,0.05218 0.04230223019,0.09448 0.09448125019,0.09448 H 22.779307 c 0.05218,-4e-6 0.09448,-0.0423 0.09448,-0.09448 -4e-6,-0.05218 -0.0423,-0.09448 -0.09448,-0.09448 z M 325.15646,396.85569 c -0.0515,-0.009 -0.10017,0.0262 -0.10875,0.0777 -0.009,0.0515 0.0262,0.10017 0.0777,0.10875 l 22.67521,3.7824 c 0.0515,0.009 0.10016,-0.0262 0.10874,-0.0777 0.009,-0.0515 -0.0262,-0.10017 -0.0777,-0.10875 z m 35.90436,-73.69913 c -0.0514,-0.009 -0.10025,0.0258 -0.10903,0.0772 l -13.2288,77.48161 c -0.009,0.0514 0.0258,0.10024 0.0772,0.10902 0.0514,0.009 0.10024,-0.0258 0.10903,-0.0772 l 13.2288,-77.4816 c 0.009,-0.0514 -0.0258,-0.10024 -0.0772,-0.10903 z m -0.0159,-0.001 c -0.0522,0 -0.0945,0.0423 -0.0945,0.0945 0,0.0522 0.0423,0.0945 0.0945,0.0945 h 209.76 c 0.0522,0 0.0945,-0.0423 0.0945,-0.0945 0,-0.0522 -0.0423,-0.0945 -0.0945,-0.0945 z" />
    </pattern>
  </defs>
  <title
     id="title2">SVG Picture created as u10e-Edge_Cuts.svg date 2021/07/12 08:05:38 </title>
  <desc
     id="desc4">Picture generated by PCBNEW </desc>
  <g
     style="fill:#000000; fill-opacity:1;stroke:#000000; stroke-opacity:1; stroke-linecap:round; stroke-linejoin:round;"
     transform="translate(0 0) scale(1 1)"
     id="g6" />
  <g
     style="fill:#000000; fill-opacity:0.0;  stroke:#000000; stroke-width:-0.000393701; stroke-opacity:1;  stroke-linecap:round; stroke-linejoin:round;"
     id="g8" />
  <g
     style="fill:#000000;fill-opacity:1;stroke:#000000;stroke-width:19.685;stroke-opacity:1;stroke-linecap:round;stroke-linejoin:round"
     id="g184">
    <g
       id="g327"
       style="fill:#000000;fill-opacity:1">
      <g
         id="path10"
         style="fill:#000000;fill-opacity:1">
        <path
           style="color:#000000;stroke:none;stroke-linecap:butt;stroke-linejoin:miter;-inkscape-stroke:none;fill:#000000;fill-opacity:1"
           d="M 37608,33671 H 59458"
           id="path349" />
      </g>
      <g
         id="path12"
         style="fill:#000000;fill-opacity:1">
        <path
           style="color:#000000;stroke:none;stroke-linecap:butt;stroke-linejoin:miter;-inkscape-stroke:none;fill:#000000;fill-opacity:1"
           d="m 36230,41742 1378,-8071"
           id="path357" />
      </g>
      <g
         id="path14"
         style="fill:#000000;fill-opacity:1">
        <path
           style="color:#000000;stroke:none;stroke-linecap:butt;stroke-linejoin:miter;-inkscape-stroke:none;fill:#000000;fill-opacity:1"
           d="m 33868,41348 2362,394"
           id="path365" />
      </g>
      <g
         id="path16"
         style="fill:#000000;fill-opacity:1">
        <path
           style="color:#000000;stroke:none;stroke-linecap:butt;stroke-linejoin:miter;-inkscape-stroke:none;fill:#000000;fill-opacity:1"
           d="M 9,1978 H 2372"
           id="path373" />
      </g>
      <g
         id="path18"
         style="fill:#000000;fill-opacity:1">
        <path
           style="color:#000000;stroke:none;stroke-linecap:butt;stroke-linejoin:miter;-inkscape-stroke:none;fill:#000000;fill-opacity:1"
           d="M 9,32096 V 1978"
           id="path381" />
      </g>
      <g
         id="path20"
         style="fill:#000000;fill-opacity:1">
        <path
           style="color:#000000;stroke:none;stroke-linecap:butt;stroke-linejoin:miter;-inkscape-stroke:none;fill:#000000;fill-opacity:1"
           d="M 2372,36230 9,32096"
           id="path389" />
      </g>
      <g
         id="path22"
         style="fill:#000000;fill-opacity:1">
        <path
           style="color:#000000;stroke:none;stroke-linecap:butt;stroke-linejoin:miter;-inkscape-stroke:none;fill:#000000;fill-opacity:1"
           d="M 11033,1978 H 2372"
           id="path397" />
      </g>
      <g
         id="path24"
         style="fill:#000000;fill-opacity:1">
        <path
           style="color:#000000;stroke:none;stroke-linecap:butt;stroke-linejoin:miter;-inkscape-stroke:none;fill:#000000;fill-opacity:1"
           d="M 18513,1978 H 11033"
           id="path405" />
      </g>
      <g
         id="path26"
         style="fill:#000000;fill-opacity:1">
        <path
           style="color:#000000;stroke:none;stroke-linecap:butt;stroke-linejoin:miter;-inkscape-stroke:none;fill:#000000;fill-opacity:1"
           d="m 18513,994 v 984"
           id="path413" />
      </g>
      <g
         id="path28"
         style="fill:#000000;fill-opacity:1">
        <path
           style="color:#000000;stroke:none;stroke-linecap:butt;stroke-linejoin:miter;-inkscape-stroke:none;fill:#000000;fill-opacity:1"
           d="M 25994,994 H 18513"
           id="path421" />
      </g>
      <g
         id="path30"
         style="fill:#000000;fill-opacity:1">
        <path
           style="color:#000000;stroke:none;stroke-linecap:butt;stroke-linejoin:miter;-inkscape-stroke:none;fill:#000000;fill-opacity:1"
           d="M 25994,9 V 994"
           id="path429" />
      </g>
      <g
         id="path32"
         style="fill:#000000;fill-opacity:1">
        <path
           style="color:#000000;stroke:none;stroke-linecap:butt;stroke-linejoin:miter;-inkscape-stroke:none;fill:#000000;fill-opacity:1"
           d="M 33474,9 H 25994"
           id="path437" />
      </g>
      <g
         id="path34"
         style="fill:#000000;fill-opacity:1">
        <path
           style="color:#000000;stroke:none;stroke-linecap:butt;stroke-linejoin:miter;-inkscape-stroke:none;fill:#000000;fill-opacity:1"
           d="M 33474,994 V 9"
           id="path445" />
      </g>
      <g
         id="path36"
         style="fill:#000000;fill-opacity:1">
        <path
           style="color:#000000;stroke:none;stroke-linecap:butt;stroke-linejoin:miter;-inkscape-stroke:none;fill:#000000;fill-opacity:1"
           d="M 40954,994 H 33474"
           id="path453" />
      </g>
      <g
         id="path38"
         style="fill:#000000;fill-opacity:1">
        <path
           style="color:#000000;stroke:none;stroke-linecap:butt;stroke-linejoin:miter;-inkscape-stroke:none;fill:#000000;fill-opacity:1"
           d="M 40954,2372 V 994"
           id="path461" />
      </g>
      <g
         id="path40"
         style="fill:#000000;fill-opacity:1">
        <path
           style="color:#000000;stroke:none;stroke-linecap:butt;stroke-linejoin:miter;-inkscape-stroke:none;fill:#000000;fill-opacity:1"
           d="M 59458,2372 H 40954"
           id="path469" />
      </g>
      <g
         id="path42"
         style="fill:#000000;fill-opacity:1">
        <path
           style="color:#000000;stroke:none;stroke-linecap:butt;stroke-linejoin:miter;-inkscape-stroke:none;fill:#000000;fill-opacity:1"
           d="M 59458,33671 V 2372"
           id="path477" />
      </g>
      <g
         id="path44"
         style="fill:#000000;fill-opacity:1">
        <path
           style="color:#000000;stroke:none;stroke-linecap:butt;stroke-linejoin:miter;-inkscape-stroke:none;fill:#000000;fill-opacity:1"
           d="M 33868,41348 25206,39773"
           id="path485" />
      </g>
      <g
         id="path46"
         style="fill:#000000;fill-opacity:1">
        <path
           style="color:#000000;stroke:none;stroke-linecap:butt;stroke-linejoin:miter;-inkscape-stroke:none;fill:#000000;fill-opacity:1"
           d="M 13986,41742 25206,39773"
           id="path493" />
      </g>
      <g
         id="path48"
         style="fill:#000000;fill-opacity:1">
        <path
           style="color:#000000;stroke:none;stroke-linecap:butt;stroke-linejoin:miter;-inkscape-stroke:none;fill:#000000;fill-opacity:1"
           d="m 7687,45285 6299,-3543"
           id="path501" />
      </g>
      <g
         id="path50"
         style="fill:#000000;fill-opacity:1">
        <path
           style="color:#000000;stroke:none;stroke-linecap:butt;stroke-linejoin:miter;-inkscape-stroke:none;fill:#000000;fill-opacity:1"
           d="m 2372,36230 5315,9055"
           id="path509" />
      </g>
    </g>
    <g
       id="g52"
       style="fill:#000000;fill-opacity:1" />
    <g
       id="g54"
       style="fill:#000000;fill-opacity:1" />
    <g
       id="g56"
       style="fill:#000000;fill-opacity:1" />
    <g
       id="g58"
       style="fill:#000000;fill-opacity:1" />
    <g
       id="g60"
       style="fill:#000000;fill-opacity:1" />
    <g
       id="g62"
       style="fill:#000000;fill-opacity:1" />
    <g
       id="g64"
       style="fill:#000000;fill-opacity:1" />
    <g
       id="g66"
       style="fill:#000000;fill-opacity:1" />
    <g
       id="g68"
       style="fill:#000000;fill-opacity:1" />
    <g
       id="g70"
       style="fill:#000000;fill-opacity:1" />
    <g
       id="g72"
       style="fill:#000000;fill-opacity:1" />
    <g
       id="g74"
       style="fill:#000000;fill-opacity:1" />
    <g
       id="g76"
       style="fill:#000000;fill-opacity:1" />
    <g
       id="g78"
       style="fill:#000000;fill-opacity:1" />
    <g
       id="g80"
       style="fill:#000000;fill-opacity:1" />
    <g
       id="g82"
       style="fill:#000000;fill-opacity:1" />
    <g
       id="g84"
       style="fill:#000000;fill-opacity:1" />
    <g
       id="g86"
       style="fill:#000000;fill-opacity:1" />
    <g
       id="g88"
       style="fill:#000000;fill-opacity:1" />
    <g
       id="g90"
       style="fill:#000000;fill-opacity:1" />
    <g
       id="g92"
       style="fill:#000000;fill-opacity:1" />
    <g
       id="g94"
       style="fill:#000000;fill-opacity:1" />
    <g
       id="g96"
       style="fill:#000000;fill-opacity:1" />
    <g
       id="g98"
       style="fill:#000000;fill-opacity:1" />
    <g
       id="g100"
       style="fill:#000000;fill-opacity:1" />
    <g
       id="g102"
       style="fill:#000000;fill-opacity:1" />
    <g
       id="g104"
       style="fill:#000000;fill-opacity:1" />
    <g
       id="g106"
       style="fill:#000000;fill-opacity:1" />
    <g
       id="g108"
       style="fill:#000000;fill-opacity:1" />
    <g
       id="g110"
       style="fill:#000000;fill-opacity:1" />
    <g
       id="g112"
       style="fill:#000000;fill-opacity:1" />
    <g
       id="g114"
       style="fill:#000000;fill-opacity:1" />
    <g
       id="g116"
       style="fill:#000000;fill-opacity:1" />
    <g
       id="g118"
       style="fill:#000000;fill-opacity:1" />
    <g
       id="g120"
       style="fill:#000000;fill-opacity:1" />
    <g
       id="g122"
       style="fill:#000000;fill-opacity:1" />
    <g
       id="g124"
       style="fill:#000000;fill-opacity:1" />
    <g
       id="g126"
       style="fill:#000000;fill-opacity:1" />
    <g
       id="g128"
       style="fill:#000000;fill-opacity:1" />
    <g
       id="g130"
       style="fill:#000000;fill-opacity:1" />
    <g
       id="g132"
       style="fill:#000000;fill-opacity:1" />
    <g
       id="g134"
       style="fill:#000000;fill-opacity:1" />
    <g
       id="g136"
       style="fill:#000000;fill-opacity:1" />
    <g
       id="g138"
       style="fill:#000000;fill-opacity:1" />
    <g
       id="g140"
       style="fill:#000000;fill-opacity:1" />
    <g
       id="g142"
       style="fill:#000000;fill-opacity:1" />
    <g
       id="g144"
       style="fill:#000000;fill-opacity:1" />
    <g
       id="g146"
       style="fill:#000000;fill-opacity:1" />
    <g
       id="g148"
       style="fill:#000000;fill-opacity:1" />
    <g
       id="g150"
       style="fill:#000000;fill-opacity:1" />
    <g
       id="g152"
       style="fill:#000000;fill-opacity:1" />
    <g
       id="g154"
       style="fill:#000000;fill-opacity:1" />
    <g
       id="g156"
       style="fill:#000000;fill-opacity:1" />
    <g
       id="g158"
       style="fill:#000000;fill-opacity:1" />
    <g
       id="g160"
       style="fill:#000000;fill-opacity:1" />
    <g
       id="g162"
       style="fill:#000000;fill-opacity:1" />
    <g
       id="g164"
       style="fill:#000000;fill-opacity:1" />
    <g
       id="g166"
       style="fill:#000000;fill-opacity:1" />
    <g
       id="g168"
       style="fill:#000000;fill-opacity:1" />
    <g
       id="g170"
       style="fill:#000000;fill-opacity:1" />
    <g
       id="g172"
       style="fill:#000000;fill-opacity:1" />
    <g
       id="g174"
       style="fill:#000000;fill-opacity:1" />
    <g
       id="g176"
       style="fill:#000000;fill-opacity:1" />
    <g
       id="g178"
       style="fill:#000000;fill-opacity:1" />
    <g
       id="g180"
       style="fill:#000000;fill-opacity:1" />
    <g
       id="g182"
       style="fill:#000000;fill-opacity:1" />
  </g>
  <metadata
     id="metadata7377">
    <rdf:RDF>
      <cc:Work
         rdf:about="">
        <dc:title>SVG Picture created as u10e-Edge_Cuts.svg date 2021/07/12 08:05:38 </dc:title>
      </cc:Work>
    </rdf:RDF>
  </metadata>
  <path
     style="fill:#000000;fill-opacity:1;stroke-width:26.8709"
     d="M 4894.443,40445.28 C 3377.366,37858.954 1658.127,34905.633 1073.912,33882.347 L 11.703,32021.825 V 16999.912 1978 H 9262.352 18513 V 1471.417 964.833 h 3744.31 3744.31 V 480.276 -4.282 h 3700.26 3700.26 v 484.558 484.557 h 3744.31 3744.31 v 704.812 704.811 h 9250.648 9250.649 V 17968.407 33562.358 H 48470.983 37549.906 l -24.824,121.139 c -13.653,66.627 -323.743,1875.068 -689.087,4018.758 -365.345,2143.689 -672.818,3906.172 -683.274,3916.627 -32.944,32.945 -1836.974,-279.664 -6477.937,-1122.518 l -4498.245,-816.936 -5633.418,989.964 -5633.42,989.962 -3096.518,1744.17 c -1703.086,959.292 -3110.896,1744.17 -3128.469,1744.17 -17.572,0 -1273.195,-2116.087 -2790.271,-4702.414 z"
     id="path7225" />
</svg>
