<?xml version="1.0" standalone="no"?>
 <!DOCTYPE svg PUBLIC "-//W3C//DTD SVG 1.1//EN" 
 "http://www.w3.org/Graphics/SVG/1.1/DTD/svg11.dtd"> 
<svg
  xmlns:svg="http://www.w3.org/2000/svg"
  xmlns="http://www.w3.org/2000/svg"
  xmlns:xlink="http://www.w3.org/1999/xlink"
  version="1.1"
  width="15.102840cm" height="11.503660cm" viewBox="0 0 59460 45290">
<title>SVG Picture created as u10e-Edge_Cuts.svg date 2021/07/12 08:05:38 </title>
  <desc>Picture generated by PCBNEW </desc>
<g style="fill:#000000; fill-opacity:1;stroke:#000000; stroke-opacity:1;
stroke-linecap:round; stroke-linejoin:round;"
 transform="translate(0 0) scale(1 1)">
</g>
<g style="fill:#000000; fill-opacity:0.0; 
stroke:#000000; stroke-width:-0.000393701; stroke-opacity:1; 
stroke-linecap:round; stroke-linejoin:round;">
</g>
<g style="fill:#000000; fill-opacity:0.0; 
stroke:#000000; stroke-width:19.685; stroke-opacity:1; 
stroke-linecap:round; stroke-linejoin:round;">
<path d="M37608 33671
L59458 33671
" />
<path d="M36230 41742
L37608 33671
" />
<path d="M33868 41348
L36230 41742
" />
<path d="M9 1978
L2372 1978
" />
<path d="M9 32096
L9 1978
" />
<path d="M2372 36230
L9 32096
" />
<path d="M11033 1978
L2372 1978
" />
<path d="M18513 1978
L11033 1978
" />
<path d="M18513 994
L18513 1978
" />
<path d="M25994 994
L18513 994
" />
<path d="M25994 9
L25994 994
" />
<path d="M33474 9
L25994 9
" />
<path d="M33474 994
L33474 9
" />
<path d="M40954 994
L33474 994
" />
<path d="M40954 2372
L40954 994
" />
<path d="M59458 2372
L40954 2372
" />
<path d="M59458 33671
L59458 2372
" />
<path d="M33868 41348
L25206 39773
" />
<path d="M13986 41742
L25206 39773
" />
<path d="M7687 45285
L13986 41742
" />
<path d="M2372 36230
L7687 45285
" />
<g >
</g>
<g >
</g>
<g >
</g>
<g >
</g>
<g >
</g>
<g >
</g>
<g >
</g>
<g >
</g>
<g >
</g>
<g >
</g>
<g >
</g>
<g >
</g>
<g >
</g>
<g >
</g>
<g >
</g>
<g >
</g>
<g >
</g>
<g >
</g>
<g >
</g>
<g >
</g>
<g >
</g>
<g >
</g>
<g >
</g>
<g >
</g>
<g >
</g>
<g >
</g>
<g >
</g>
<g >
</g>
<g >
</g>
<g >
</g>
<g >
</g>
<g >
</g>
<g >
</g>
<g >
</g>
<g >
</g>
<g >
</g>
<g >
</g>
<g >
</g>
<g >
</g>
<g >
</g>
<g >
</g>
<g >
</g>
<g >
</g>
<g >
</g>
<g >
</g>
<g >
</g>
<g >
</g>
<g >
</g>
<g >
</g>
<g >
</g>
<g >
</g>
<g >
</g>
<g >
</g>
<g >
</g>
<g >
</g>
<g >
</g>
<g >
</g>
<g >
</g>
<g >
</g>
<g >
</g>
<g >
</g>
<g >
</g>
<g >
</g>
<g >
</g>
<g >
</g>
<g >
</g>
</g> 
</svg>
