<?xml version="1.0" standalone="no"?>
 <!DOCTYPE svg PUBLIC "-//W3C//DTD SVG 1.1//EN" 
 "http://www.w3.org/Graphics/SVG/1.1/DTD/svg11.dtd"> 
<svg
  xmlns:svg="http://www.w3.org/2000/svg"
  xmlns="http://www.w3.org/2000/svg"
  xmlns:xlink="http://www.w3.org/1999/xlink"
  version="1.1"
  width="14.612620cm" height="11.503660cm" viewBox="0 0 57530 45290">
<title>SVG Picture created as u10e_topplate-Eco1_User.svg date 2020/12/03 12:42:32 </title>
  <desc>Picture generated by PCBNEW </desc>
<g style="fill:#000000; fill-opacity:1;stroke:#000000; stroke-opacity:1;
stroke-linecap:round; stroke-linejoin:round;"
 transform="translate(0 0) scale(1 1)">
</g>
<g style="fill:#000000; fill-opacity:0.0; 
stroke:#000000; stroke-width:-0.000393701; stroke-opacity:1; 
stroke-linecap:round; stroke-linejoin:round;">
</g>
<g style="fill:#000000; fill-opacity:0.0; 
stroke:#000000; stroke-width:59.0551; stroke-opacity:1; 
stroke-linecap:round; stroke-linejoin:round;">
<circle cx="8513.78" cy="5521.65" r="393.701" /> 
<circle cx="1820.87" cy="36033.5" r="440.171" /> 
<circle cx="22490.2" cy="35639.8" r="440.171" /> 
<circle cx="30954.7" cy="14970.5" r="440.171" /> 
<circle cx="56545.3" cy="32490.2" r="393.701" /> 
<circle cx="56348.4" cy="3553.15" r="393.701" /> 
<circle cx="56348.4" cy="17332.7" r="393.701" /> 
<path d="M49261 31309
L49261 25797
" />
<path d="M54773 31309
L49261 31309
" />
<path d="M54773 25797
L54773 31309
" />
<path d="M49261 25797
L54773 25797
" />
<path d="M2386 37977
L7160 35221
" />
<path d="M5142 42750
L2386 37977
" />
<path d="M9916 39994
L5142 42750
" />
<path d="M7160 35221
L9916 39994
" />
<path d="M49261 23828
L49261 18316
" />
<path d="M54773 23828
L49261 23828
" />
<path d="M54773 18316
L54773 23828
" />
<path d="M49261 18316
L54773 18316
" />
<path d="M49261 16348
L49261 10836
" />
<path d="M54773 16348
L49261 16348
" />
<path d="M54773 10836
L54773 16348
" />
<path d="M49261 10836
L54773 10836
" />
<path d="M49261 8868
L49261 3356
" />
<path d="M54773 8868
L49261 8868
" />
<path d="M54773 3356
L54773 8868
" />
<path d="M49261 3356
L54773 3356
" />
<path d="M14376 34782
L19804 33825
" />
<path d="M19804 33825
L20761 39253
" />
<path d="M20761 39253
L15333 40210
" />
<path d="M15333 40210
L14376 34782
" />
<path d="M10088 17923
L15600 17923
" />
<path d="M15600 17923
L15600 23435
" />
<path d="M15600 23435
L10088 23435
" />
<path d="M10088 23435
L10088 17923
" />
<path d="M26750 33825
L32178 34782
" />
<path d="M32178 34782
L31221 40210
" />
<path d="M31221 40210
L25793 39253
" />
<path d="M25793 39253
L26750 33825
" />
<path d="M40009 25797
L45521 25797
" />
<path d="M45521 25797
L45521 31309
" />
<path d="M45521 31309
L40009 31309
" />
<path d="M40009 31309
L40009 25797
" />
<path d="M32529 24419
L38041 24419
" />
<path d="M38041 24419
L38041 29931
" />
<path d="M38041 29931
L32529 29931
" />
<path d="M32529 29931
L32529 24419
" />
<path d="M25049 23435
L30561 23435
" />
<path d="M30561 23435
L30561 28946
" />
<path d="M30561 28946
L25049 28946
" />
<path d="M25049 28946
L25049 23435
" />
<path d="M17568 24419
L23080 24419
" />
<path d="M23080 24419
L23080 29931
" />
<path d="M23080 29931
L17568 29931
" />
<path d="M17568 29931
L17568 24419
" />
<path d="M10088 25403
L15600 25403
" />
<path d="M15600 25403
L15600 30915
" />
<path d="M15600 30915
L10088 30915
" />
<path d="M10088 30915
L10088 25403
" />
<path d="M40009 18316
L45521 18316
" />
<path d="M45521 18316
L45521 23828
" />
<path d="M45521 23828
L40009 23828
" />
<path d="M40009 23828
L40009 18316
" />
<path d="M32529 16938
L38041 16938
" />
<path d="M38041 16938
L38041 22450
" />
<path d="M38041 22450
L32529 22450
" />
<path d="M32529 22450
L32529 16938
" />
<path d="M25049 15954
L30561 15954
" />
<path d="M30561 15954
L30561 21466
" />
<path d="M30561 21466
L25049 21466
" />
<path d="M25049 21466
L25049 15954
" />
<path d="M17568 16938
L23080 16938
" />
<path d="M23080 16938
L23080 22450
" />
<path d="M23080 22450
L17568 22450
" />
<path d="M17568 22450
L17568 16938
" />
<path d="M40009 10836
L45521 10836
" />
<path d="M45521 10836
L45521 16348
" />
<path d="M45521 16348
L40009 16348
" />
<path d="M40009 16348
L40009 10836
" />
<path d="M32529 9458
L38041 9458
" />
<path d="M38041 9458
L38041 14970
" />
<path d="M38041 14970
L32529 14970
" />
<path d="M32529 14970
L32529 9458
" />
<path d="M25049 8474
L30561 8474
" />
<path d="M30561 8474
L30561 13986
" />
<path d="M30561 13986
L25049 13986
" />
<path d="M25049 13986
L25049 8474
" />
<path d="M17568 9458
L23080 9458
" />
<path d="M23080 9458
L23080 14970
" />
<path d="M23080 14970
L17568 14970
" />
<path d="M17568 14970
L17568 9458
" />
<path d="M10088 10442
L15600 10442
" />
<path d="M15600 10442
L15600 15954
" />
<path d="M15600 15954
L10088 15954
" />
<path d="M10088 15954
L10088 10442
" />
<path d="M40009 3356
L45521 3356
" />
<path d="M45521 3356
L45521 8868
" />
<path d="M45521 8868
L40009 8868
" />
<path d="M40009 8868
L40009 3356
" />
<path d="M32529 1978
L38041 1978
" />
<path d="M38041 1978
L38041 7490
" />
<path d="M38041 7490
L32529 7490
" />
<path d="M32529 7490
L32529 1978
" />
<path d="M25049 994
L30561 994
" />
<path d="M30561 994
L30561 6505
" />
<path d="M30561 6505
L25049 6505
" />
<path d="M25049 6505
L25049 994
" />
<path d="M17568 1978
L23080 1978
" />
<path d="M23080 1978
L23080 7490
" />
<path d="M23080 7490
L17568 7490
" />
<path d="M17568 7490
L17568 1978
" />
<path d="M10088 2962
L15600 2962
" />
<path d="M15600 2962
L15600 8474
" />
<path d="M15600 8474
L10088 8474
" />
<path d="M10088 8474
L10088 2962
" />
<g >
</g>
<g >
</g>
<g >
</g>
<g >
</g>
<g >
</g>
<g >
</g>
<g >
</g>
<g >
</g>
<g >
</g>
<g >
</g>
<g >
</g>
<g >
</g>
<g >
</g>
<g >
</g>
<g >
</g>
<g >
</g>
<g >
</g>
<g >
</g>
<g >
</g>
<g >
</g>
<g >
</g>
<g >
</g>
<g >
</g>
<g >
</g>
<g >
</g>
<g >
</g>
<g >
</g>
<g >
</g>
<g >
</g>
<g >
</g>
<g >
</g>
<g >
</g>
<g >
</g>
<g >
</g>
<g >
</g>
<g >
</g>
<g >
</g>
<g >
</g>
<g >
</g>
<g >
</g>
<g >
</g>
<g >
</g>
<g >
</g>
<g >
</g>
<g >
</g>
<g >
</g>
<g >
</g>
<g >
</g>
<g >
</g>
<g >
</g>
<g >
</g>
<g >
</g>
<g >
</g>
<g >
</g>
<g >
</g>
<g >
</g>
<g >
</g>
<g >
</g>
<g >
</g>
<g >
</g>
<g >
</g>
<g >
</g>
<g >
</g>
<g >
</g>
<g >
</g>
</g>
<g style="fill:#000000; fill-opacity:0.0; 
stroke:#000000; stroke-width:59.0551; stroke-opacity:1; 
stroke-linecap:round; stroke-linejoin:round;">
</g>
<g style="fill:#000000; fill-opacity:0.0; 
stroke:#000000; stroke-width:19.685; stroke-opacity:1; 
stroke-linecap:round; stroke-linejoin:round;">
<path d="M7204 31368
L7204 1978
" />
<path d="M9 35472
L7204 31368
" />
<path d="M35679 33671
L57529 33671
" />
<path d="M34301 41742
L35679 33671
" />
<path d="M31938 41348
L34301 41742
" />
<path d="M9104 1978
L7204 1978
" />
<path d="M16584 1978
L9104 1978
" />
<path d="M16584 994
L16584 1978
" />
<path d="M24064 994
L16584 994
" />
<path d="M24064 9
L24064 994
" />
<path d="M31545 9
L24064 9
" />
<path d="M31545 994
L31545 9
" />
<path d="M39025 994
L31545 994
" />
<path d="M39025 2372
L39025 994
" />
<path d="M57529 2372
L39025 2372
" />
<path d="M57529 33671
L57529 2372
" />
<path d="M31938 41348
L23277 39773
" />
<path d="M12057 41742
L23277 39773
" />
<path d="M5757 45285
L12057 41742
" />
<path d="M9 35472
L5757 45285
" />
<g >
</g>
<g >
</g>
<g >
</g>
<g >
</g>
<g >
</g>
<g >
</g>
<g >
</g>
<g >
</g>
<g >
</g>
<g >
</g>
<g >
</g>
<g >
</g>
<g >
</g>
<g >
</g>
<g >
</g>
<g >
</g>
<g >
</g>
<g >
</g>
<g >
</g>
<g >
</g>
<g >
</g>
<g >
</g>
<g >
</g>
<g >
</g>
<g >
</g>
<g >
</g>
<g >
</g>
<g >
</g>
<g >
</g>
<g >
</g>
<g >
</g>
<g >
</g>
<g >
</g>
<g >
</g>
<g >
</g>
<g >
</g>
<g >
</g>
<g >
</g>
<g >
</g>
<g >
</g>
<g >
</g>
<g >
</g>
<g >
</g>
<g >
</g>
<g >
</g>
<g >
</g>
<g >
</g>
<g >
</g>
<g >
</g>
<g >
</g>
<g >
</g>
<g >
</g>
<g >
</g>
<g >
</g>
<g >
</g>
<g >
</g>
<g >
</g>
<g >
</g>
<g >
</g>
<g >
</g>
<g >
</g>
<g >
</g>
<g >
</g>
<g >
</g>
<g >
</g>
</g> 
</svg>
